<svg width="1279" height="1279" viewBox="0 0 1279 1279" fill="none" xmlns="http://www.w3.org/2000/svg">
<rect width="1279" height="1279" rx="100" fill="white"/>
<rect x="451" y="327" width="377" height="197.036" rx="98.5179" fill="#1669FF"/>
<path d="M536.923 533.95C531.179 551.042 507.008 551.052 501.259 533.965V533.965C497.158 521.776 506.226 509.154 519.087 509.148V509.148C531.949 509.143 541.021 521.757 536.923 533.95V533.95Z" fill="#1669FF"/>
<path d="M794.619 533.95C788.875 551.042 764.704 551.052 758.955 533.965V533.965C754.854 521.776 763.922 509.154 776.784 509.148V509.148C789.646 509.143 798.717 521.757 794.619 533.95V533.95Z" fill="#1669FF"/>
<g filter="url(#filter0_d_161_105)">
<circle cx="563.5" cy="426.5" r="18.5" fill="white"/>
</g>
<g filter="url(#filter1_d_161_105)">
<circle cx="716.5" cy="426.5" r="18.5" fill="white"/>
</g>
<g filter="url(#filter2_d_161_105)">
<circle cx="639.5" cy="426.5" r="18.5" fill="white"/>
</g>
<path d="M149.326 787V597.909H200.661V745.636H277.11V787H149.326ZM338.117 789.216C329.069 789.216 321.067 787.739 314.111 784.784C307.217 781.768 301.801 777.213 297.861 771.119C293.922 765.026 291.952 757.27 291.952 747.852C291.952 740.097 293.276 733.48 295.922 728.001C298.569 722.462 302.262 717.938 307.002 714.429C311.742 710.92 317.251 708.243 323.529 706.396C329.869 704.55 336.701 703.349 344.026 702.795C351.966 702.18 358.337 701.441 363.138 700.58C368.001 699.656 371.51 698.394 373.664 696.794C375.818 695.132 376.895 692.947 376.895 690.239V689.869C376.895 686.176 375.48 683.345 372.648 681.375C369.817 679.405 366.185 678.42 361.753 678.42C356.891 678.42 352.921 679.498 349.843 681.652C346.827 683.745 345.011 686.976 344.395 691.347H297.492C298.108 682.729 300.847 674.789 305.709 667.526C310.634 660.201 317.805 654.353 327.222 649.983C336.64 645.551 348.396 643.335 362.492 643.335C372.648 643.335 381.758 644.536 389.822 646.936C397.885 649.275 404.748 652.568 410.411 656.815C416.074 661.001 420.383 665.925 423.337 671.588C426.353 677.189 427.861 683.283 427.861 689.869V787H380.219V767.057H379.111C376.28 772.35 372.833 776.628 368.77 779.891C364.769 783.153 360.184 785.523 355.013 787C349.904 788.477 344.272 789.216 338.117 789.216ZM354.736 757.085C358.614 757.085 362.246 756.285 365.631 754.685C369.078 753.084 371.879 750.776 374.033 747.76C376.188 744.744 377.265 741.081 377.265 736.773V724.955C375.911 725.509 374.464 726.032 372.925 726.524C371.448 727.017 369.848 727.478 368.124 727.909C366.462 728.34 364.677 728.74 362.769 729.109C360.922 729.479 358.983 729.817 356.952 730.125C353.013 730.741 349.781 731.756 347.258 733.172C344.796 734.526 342.949 736.219 341.718 738.25C340.548 740.22 339.964 742.436 339.964 744.898C339.964 748.837 341.349 751.853 344.118 753.946C346.888 756.039 350.428 757.085 354.736 757.085ZM503.179 707.227V787H452.213V645.182H500.594V672.142H502.071C505.149 663.155 510.566 656.107 518.321 650.999C526.138 645.89 535.248 643.335 545.651 643.335C555.684 643.335 564.394 645.643 571.78 650.26C579.228 654.815 584.983 661.093 589.046 669.095C593.17 677.097 595.201 686.238 595.139 696.517V787H544.173V707.227C544.235 700.21 542.45 694.701 538.818 690.7C535.248 686.699 530.262 684.699 523.861 684.699C519.675 684.699 516.013 685.622 512.874 687.469C509.796 689.254 507.426 691.839 505.764 695.224C504.102 698.548 503.241 702.549 503.179 707.227Z" fill="#1669FF"/>
<path d="M602.456 639.273V597.909H766.803V639.273H709.928V787H659.331V639.273H602.456ZM807.082 789.216C798.034 789.216 790.032 787.739 783.076 784.784C776.182 781.768 770.766 777.213 766.826 771.119C762.887 765.026 760.917 757.27 760.917 747.852C760.917 740.097 762.24 733.48 764.887 728.001C767.534 722.462 771.227 717.938 775.967 714.429C780.706 710.92 786.215 708.243 792.494 706.396C798.834 704.55 805.666 703.349 812.991 702.795C820.931 702.18 827.302 701.441 832.103 700.58C836.966 699.656 840.474 698.394 842.629 696.794C844.783 695.132 845.86 692.947 845.86 690.239V689.869C845.86 686.176 844.445 683.345 841.613 681.375C838.782 679.405 835.15 678.42 830.718 678.42C825.856 678.42 821.885 679.498 818.808 681.652C815.792 683.745 813.976 686.976 813.36 691.347H766.457C767.072 682.729 769.811 674.789 774.674 667.526C779.598 660.201 786.769 654.353 796.187 649.983C805.605 645.551 817.361 643.335 831.457 643.335C841.613 643.335 850.723 644.536 858.786 646.936C866.85 649.275 873.713 652.568 879.376 656.815C885.039 661.001 889.347 665.925 892.302 671.588C895.318 677.189 896.826 683.283 896.826 689.869V787H849.184V767.057H848.076C845.245 772.35 841.798 776.628 837.735 779.891C833.734 783.153 829.149 785.523 823.978 787C818.869 788.477 813.237 789.216 807.082 789.216ZM823.701 757.085C827.579 757.085 831.211 756.285 834.596 754.685C838.043 753.084 840.844 750.776 842.998 747.76C845.152 744.744 846.23 741.081 846.23 736.773V724.955C844.875 725.509 843.429 726.032 841.89 726.524C840.413 727.017 838.812 727.478 837.089 727.909C835.427 728.34 833.642 728.74 831.734 729.109C829.887 729.479 827.948 729.817 825.917 730.125C821.978 730.741 818.746 731.756 816.222 733.172C813.76 734.526 811.914 736.219 810.683 738.25C809.513 740.22 808.928 742.436 808.928 744.898C808.928 748.837 810.313 751.853 813.083 753.946C815.853 756.039 819.392 757.085 823.701 757.085ZM972.144 597.909V787H921.178V597.909H972.144ZM1043.91 753.392L1044.28 692.824H1050.92L1085.27 645.182H1142.52L1084.9 719.415H1070.5L1043.91 753.392ZM998.112 787V597.909H1049.08V787H998.112ZM1085.64 787L1053.14 730.864L1086.38 694.67L1143.99 787H1085.64Z" fill="#101111" fill-opacity="0.78"/>
<defs>
<filter id="filter0_d_161_105" x="545" y="408" width="57" height="57" filterUnits="userSpaceOnUse" color-interpolation-filters="sRGB">
<feFlood flood-opacity="0" result="BackgroundImageFix"/>
<feColorMatrix in="SourceAlpha" type="matrix" values="0 0 0 0 0 0 0 0 0 0 0 0 0 0 0 0 0 0 127 0" result="hardAlpha"/>
<feOffset dx="10" dy="10"/>
<feGaussianBlur stdDeviation="5"/>
<feComposite in2="hardAlpha" operator="out"/>
<feColorMatrix type="matrix" values="0 0 0 0 0 0 0 0 0 0 0 0 0 0 0 0 0 0 0.25 0"/>
<feBlend mode="normal" in2="BackgroundImageFix" result="effect1_dropShadow_161_105"/>
<feBlend mode="normal" in="SourceGraphic" in2="effect1_dropShadow_161_105" result="shape"/>
</filter>
<filter id="filter1_d_161_105" x="698" y="408" width="57" height="57" filterUnits="userSpaceOnUse" color-interpolation-filters="sRGB">
<feFlood flood-opacity="0" result="BackgroundImageFix"/>
<feColorMatrix in="SourceAlpha" type="matrix" values="0 0 0 0 0 0 0 0 0 0 0 0 0 0 0 0 0 0 127 0" result="hardAlpha"/>
<feOffset dx="10" dy="10"/>
<feGaussianBlur stdDeviation="5"/>
<feComposite in2="hardAlpha" operator="out"/>
<feColorMatrix type="matrix" values="0 0 0 0 0 0 0 0 0 0 0 0 0 0 0 0 0 0 0.25 0"/>
<feBlend mode="normal" in2="BackgroundImageFix" result="effect1_dropShadow_161_105"/>
<feBlend mode="normal" in="SourceGraphic" in2="effect1_dropShadow_161_105" result="shape"/>
</filter>
<filter id="filter2_d_161_105" x="621" y="408" width="57" height="57" filterUnits="userSpaceOnUse" color-interpolation-filters="sRGB">
<feFlood flood-opacity="0" result="BackgroundImageFix"/>
<feColorMatrix in="SourceAlpha" type="matrix" values="0 0 0 0 0 0 0 0 0 0 0 0 0 0 0 0 0 0 127 0" result="hardAlpha"/>
<feOffset dx="10" dy="10"/>
<feGaussianBlur stdDeviation="5"/>
<feComposite in2="hardAlpha" operator="out"/>
<feColorMatrix type="matrix" values="0 0 0 0 0 0 0 0 0 0 0 0 0 0 0 0 0 0 0.25 0"/>
<feBlend mode="normal" in2="BackgroundImageFix" result="effect1_dropShadow_161_105"/>
<feBlend mode="normal" in="SourceGraphic" in2="effect1_dropShadow_161_105" result="shape"/>
</filter>
</defs>
</svg>
