<svg width="1497" height="315" viewBox="0 0 1497 315" fill="none" xmlns="http://www.w3.org/2000/svg">
<rect y="44" width="377" height="197.036" rx="98.5179" fill="#1669FF"/>
<path d="M85.923 250.95C80.1789 268.042 56.008 268.052 50.2591 250.965V250.965C46.1579 238.776 55.2256 226.154 68.0875 226.148V226.148C80.9494 226.143 90.0207 238.757 85.923 250.95V250.95Z" fill="#1669FF"/>
<path d="M343.619 250.95C337.875 268.042 313.704 268.052 307.955 250.965V250.965C303.854 238.776 312.922 226.154 325.784 226.149V226.149C338.646 226.143 347.717 238.757 343.619 250.95V250.95Z" fill="#1669FF"/>
<g filter="url(#filter0_d_161_105)">
<circle cx="112.5" cy="143.5" r="18.5" fill="white"/>
</g>
<g filter="url(#filter1_d_161_105)">
<circle cx="265.5" cy="143.5" r="18.5" fill="white"/>
</g>
<g filter="url(#filter2_d_161_105)">
<circle cx="188.5" cy="143.5" r="18.5" fill="white"/>
</g>
<path d="M502.326 252V62.9091H553.661V210.636H630.11V252H502.326ZM691.117 254.216C682.069 254.216 674.067 252.739 667.111 249.784C660.217 246.768 654.801 242.213 650.861 236.119C646.922 230.026 644.952 222.27 644.952 212.852C644.952 205.097 646.276 198.48 648.922 193.001C651.569 187.462 655.262 182.938 660.002 179.429C664.742 175.92 670.251 173.243 676.529 171.396C682.869 169.55 689.701 168.349 697.026 167.795C704.966 167.18 711.337 166.441 716.138 165.58C721.001 164.656 724.51 163.394 726.664 161.794C728.818 160.132 729.895 157.947 729.895 155.239V154.869C729.895 151.176 728.48 148.345 725.648 146.375C722.817 144.405 719.185 143.42 714.753 143.42C709.891 143.42 705.921 144.498 702.843 146.652C699.827 148.745 698.011 151.976 697.395 156.347H650.492C651.108 147.729 653.847 139.789 658.709 132.526C663.634 125.201 670.805 119.353 680.222 114.983C689.64 110.551 701.396 108.335 715.492 108.335C725.648 108.335 734.758 109.536 742.822 111.936C750.885 114.275 757.748 117.568 763.411 121.815C769.074 126.001 773.383 130.925 776.337 136.588C779.353 142.189 780.861 148.283 780.861 154.869V252H733.219V232.057H732.111C729.28 237.35 725.833 241.628 721.77 244.891C717.769 248.153 713.184 250.523 708.013 252C702.904 253.477 697.272 254.216 691.117 254.216ZM707.736 222.085C711.614 222.085 715.246 221.285 718.631 219.685C722.078 218.084 724.879 215.776 727.033 212.76C729.188 209.744 730.265 206.081 730.265 201.773V189.955C728.911 190.509 727.464 191.032 725.925 191.524C724.448 192.017 722.848 192.478 721.124 192.909C719.462 193.34 717.677 193.74 715.769 194.109C713.922 194.479 711.983 194.817 709.952 195.125C706.013 195.741 702.781 196.756 700.258 198.172C697.796 199.526 695.949 201.219 694.718 203.25C693.548 205.22 692.964 207.436 692.964 209.898C692.964 213.837 694.349 216.853 697.118 218.946C699.888 221.039 703.428 222.085 707.736 222.085ZM856.179 172.227V252H805.213V110.182H853.594V137.142H855.071C858.149 128.155 863.566 121.107 871.321 115.999C879.138 110.89 888.248 108.335 898.651 108.335C908.684 108.335 917.394 110.643 924.78 115.26C932.228 119.815 937.983 126.093 942.046 134.095C946.17 142.097 948.201 151.238 948.139 161.517V252H897.173V172.227C897.235 165.21 895.45 159.701 891.818 155.7C888.248 151.699 883.262 149.699 876.861 149.699C872.675 149.699 869.013 150.622 865.874 152.469C862.796 154.254 860.426 156.839 858.764 160.224C857.102 163.548 856.241 167.549 856.179 172.227Z" fill="#1669FF"/>
<path d="M955.456 104.273V62.9091H1119.8V104.273H1062.93V252H1012.33V104.273H955.456ZM1160.08 254.216C1151.03 254.216 1143.03 252.739 1136.08 249.784C1129.18 246.768 1123.77 242.213 1119.83 236.119C1115.89 230.026 1113.92 222.27 1113.92 212.852C1113.92 205.097 1115.24 198.48 1117.89 193.001C1120.53 187.462 1124.23 182.938 1128.97 179.429C1133.71 175.92 1139.22 173.243 1145.49 171.396C1151.83 169.55 1158.67 168.349 1165.99 167.795C1173.93 167.18 1180.3 166.441 1185.1 165.58C1189.97 164.656 1193.47 163.394 1195.63 161.794C1197.78 160.132 1198.86 157.947 1198.86 155.239V154.869C1198.86 151.176 1197.44 148.345 1194.61 146.375C1191.78 144.405 1188.15 143.42 1183.72 143.42C1178.86 143.42 1174.89 144.498 1171.81 146.652C1168.79 148.745 1166.98 151.976 1166.36 156.347H1119.46C1120.07 147.729 1122.81 139.789 1127.67 132.526C1132.6 125.201 1139.77 119.353 1149.19 114.983C1158.6 110.551 1170.36 108.335 1184.46 108.335C1194.61 108.335 1203.72 109.536 1211.79 111.936C1219.85 114.275 1226.71 117.568 1232.38 121.815C1238.04 126.001 1242.35 130.925 1245.3 136.588C1248.32 142.189 1249.83 148.283 1249.83 154.869V252H1202.18V232.057H1201.08C1198.24 237.35 1194.8 241.628 1190.74 244.891C1186.73 248.153 1182.15 250.523 1176.98 252C1171.87 253.477 1166.24 254.216 1160.08 254.216ZM1176.7 222.085C1180.58 222.085 1184.21 221.285 1187.6 219.685C1191.04 218.084 1193.84 215.776 1196 212.76C1198.15 209.744 1199.23 206.081 1199.23 201.773V189.955C1197.88 190.509 1196.43 191.032 1194.89 191.524C1193.41 192.017 1191.81 192.478 1190.09 192.909C1188.43 193.34 1186.64 193.74 1184.73 194.109C1182.89 194.479 1180.95 194.817 1178.92 195.125C1174.98 195.741 1171.75 196.756 1169.22 198.172C1166.76 199.526 1164.91 201.219 1163.68 203.25C1162.51 205.22 1161.93 207.436 1161.93 209.898C1161.93 213.837 1163.31 216.853 1166.08 218.946C1168.85 221.039 1172.39 222.085 1176.7 222.085ZM1325.14 62.9091V252H1274.18V62.9091H1325.14ZM1396.91 218.392L1397.28 157.824H1403.92L1438.27 110.182H1495.52L1437.9 184.415H1423.5L1396.91 218.392ZM1351.11 252V62.9091H1402.08V252H1351.11ZM1438.64 252L1406.14 195.864L1439.38 159.67L1496.99 252H1438.64Z" fill="#101111" fill-opacity="0.78"/>
<defs>
<filter id="filter0_d_161_105" x="94" y="125" width="57" height="57" filterUnits="userSpaceOnUse" color-interpolation-filters="sRGB">
<feFlood flood-opacity="0" result="BackgroundImageFix"/>
<feColorMatrix in="SourceAlpha" type="matrix" values="0 0 0 0 0 0 0 0 0 0 0 0 0 0 0 0 0 0 127 0" result="hardAlpha"/>
<feOffset dx="10" dy="10"/>
<feGaussianBlur stdDeviation="5"/>
<feComposite in2="hardAlpha" operator="out"/>
<feColorMatrix type="matrix" values="0 0 0 0 0 0 0 0 0 0 0 0 0 0 0 0 0 0 0.25 0"/>
<feBlend mode="normal" in2="BackgroundImageFix" result="effect1_dropShadow_161_105"/>
<feBlend mode="normal" in="SourceGraphic" in2="effect1_dropShadow_161_105" result="shape"/>
</filter>
<filter id="filter1_d_161_105" x="247" y="125" width="57" height="57" filterUnits="userSpaceOnUse" color-interpolation-filters="sRGB">
<feFlood flood-opacity="0" result="BackgroundImageFix"/>
<feColorMatrix in="SourceAlpha" type="matrix" values="0 0 0 0 0 0 0 0 0 0 0 0 0 0 0 0 0 0 127 0" result="hardAlpha"/>
<feOffset dx="10" dy="10"/>
<feGaussianBlur stdDeviation="5"/>
<feComposite in2="hardAlpha" operator="out"/>
<feColorMatrix type="matrix" values="0 0 0 0 0 0 0 0 0 0 0 0 0 0 0 0 0 0 0.25 0"/>
<feBlend mode="normal" in2="BackgroundImageFix" result="effect1_dropShadow_161_105"/>
<feBlend mode="normal" in="SourceGraphic" in2="effect1_dropShadow_161_105" result="shape"/>
</filter>
<filter id="filter2_d_161_105" x="170" y="125" width="57" height="57" filterUnits="userSpaceOnUse" color-interpolation-filters="sRGB">
<feFlood flood-opacity="0" result="BackgroundImageFix"/>
<feColorMatrix in="SourceAlpha" type="matrix" values="0 0 0 0 0 0 0 0 0 0 0 0 0 0 0 0 0 0 127 0" result="hardAlpha"/>
<feOffset dx="10" dy="10"/>
<feGaussianBlur stdDeviation="5"/>
<feComposite in2="hardAlpha" operator="out"/>
<feColorMatrix type="matrix" values="0 0 0 0 0 0 0 0 0 0 0 0 0 0 0 0 0 0 0.25 0"/>
<feBlend mode="normal" in2="BackgroundImageFix" result="effect1_dropShadow_161_105"/>
<feBlend mode="normal" in="SourceGraphic" in2="effect1_dropShadow_161_105" result="shape"/>
</filter>
</defs>
</svg>
