<svg width="995" height="193" viewBox="0 0 995 193" fill="none" xmlns="http://www.w3.org/2000/svg">
<path d="M0.326172 190V0.909085H51.6614V148.636H128.11V190H0.326172ZM189.117 192.216C180.069 192.216 172.067 190.739 165.111 187.784C158.217 184.768 152.801 180.213 148.861 174.119C144.922 168.026 142.952 160.27 142.952 150.852C142.952 143.097 144.276 136.48 146.922 131.001C149.569 125.462 153.262 120.938 158.002 117.429C162.742 113.92 168.251 111.243 174.529 109.396C180.869 107.55 187.701 106.349 195.026 105.795C202.966 105.18 209.337 104.441 214.138 103.58C219.001 102.656 222.51 101.394 224.664 99.794C226.818 98.1321 227.895 95.947 227.895 93.2386V92.8693C227.895 89.1761 226.48 86.3447 223.648 84.375C220.817 82.4053 217.185 81.4204 212.753 81.4204C207.891 81.4204 203.921 82.4976 200.843 84.652C197.827 86.7448 196.011 89.9763 195.395 94.3466H148.492C149.108 85.7292 151.847 77.7888 156.709 70.5256C161.634 63.2008 168.805 57.3532 178.222 52.983C187.64 48.5511 199.396 46.3352 213.492 46.3352C223.648 46.3352 232.758 47.5355 240.822 49.9361C248.885 52.2751 255.748 55.5682 261.411 59.8153C267.074 64.0009 271.383 68.9252 274.337 74.5881C277.353 80.1894 278.861 86.2831 278.861 92.8693V190H231.219V170.057H230.111C227.28 175.35 223.833 179.628 219.77 182.891C215.769 186.153 211.184 188.523 206.013 190C200.904 191.477 195.272 192.216 189.117 192.216ZM205.736 160.085C209.614 160.085 213.246 159.285 216.631 157.685C220.078 156.084 222.879 153.776 225.033 150.76C227.188 147.744 228.265 144.081 228.265 139.773V127.955C226.911 128.509 225.464 129.032 223.925 129.524C222.448 130.017 220.848 130.478 219.124 130.909C217.462 131.34 215.677 131.74 213.769 132.109C211.922 132.479 209.983 132.817 207.952 133.125C204.013 133.741 200.781 134.756 198.258 136.172C195.796 137.526 193.949 139.219 192.718 141.25C191.548 143.22 190.964 145.436 190.964 147.898C190.964 151.837 192.349 154.853 195.118 156.946C197.888 159.039 201.428 160.085 205.736 160.085ZM354.179 110.227V190H303.213V48.1818H351.594V75.142H353.071C356.149 66.1553 361.566 59.1075 369.321 53.9986C377.138 48.8897 386.248 46.3352 396.651 46.3352C406.684 46.3352 415.394 48.6435 422.78 53.2599C430.228 57.8149 435.983 64.0933 440.046 72.0952C444.17 80.0971 446.201 89.2377 446.139 99.517V190H395.173V110.227C395.235 103.21 393.45 97.7012 389.818 93.7003C386.248 89.6993 381.262 87.6989 374.861 87.6989C370.675 87.6989 367.013 88.6222 363.874 90.4688C360.796 92.2538 358.426 94.839 356.764 98.2244C355.102 101.548 354.241 105.549 354.179 110.227Z" fill="#1669FF"/>
<path d="M453.456 42.2727V0.909085H617.803V42.2727H560.928V190H510.331V42.2727H453.456ZM658.082 192.216C649.034 192.216 641.032 190.739 634.076 187.784C627.182 184.768 621.766 180.213 617.826 174.119C613.887 168.026 611.917 160.27 611.917 150.852C611.917 143.097 613.24 136.48 615.887 131.001C618.534 125.462 622.227 120.938 626.967 117.429C631.706 113.92 637.215 111.243 643.494 109.396C649.834 107.55 656.666 106.349 663.991 105.795C671.931 105.18 678.302 104.441 683.103 103.58C687.966 102.656 691.474 101.394 693.629 99.794C695.783 98.1321 696.86 95.947 696.86 93.2386V92.8693C696.86 89.1761 695.445 86.3447 692.613 84.375C689.782 82.4053 686.15 81.4204 681.718 81.4204C676.856 81.4204 672.885 82.4976 669.808 84.652C666.792 86.7448 664.976 89.9763 664.36 94.3466H617.457C618.072 85.7292 620.811 77.7888 625.674 70.5256C630.598 63.2008 637.769 57.3532 647.187 52.983C656.605 48.5511 668.361 46.3352 682.457 46.3352C692.613 46.3352 701.723 47.5355 709.786 49.9361C717.85 52.2751 724.713 55.5682 730.376 59.8153C736.039 64.0009 740.347 68.9252 743.302 74.5881C746.318 80.1894 747.826 86.2831 747.826 92.8693V190H700.184V170.057H699.076C696.245 175.35 692.798 179.628 688.735 182.891C684.734 186.153 680.149 188.523 674.978 190C669.869 191.477 664.237 192.216 658.082 192.216ZM674.701 160.085C678.579 160.085 682.211 159.285 685.596 157.685C689.043 156.084 691.844 153.776 693.998 150.76C696.152 147.744 697.23 144.081 697.23 139.773V127.955C695.875 128.509 694.429 129.032 692.89 129.524C691.413 130.017 689.812 130.478 688.089 130.909C686.427 131.34 684.642 131.74 682.734 132.109C680.887 132.479 678.948 132.817 676.917 133.125C672.978 133.741 669.746 134.756 667.222 136.172C664.76 137.526 662.914 139.219 661.683 141.25C660.513 143.22 659.928 145.436 659.928 147.898C659.928 151.837 661.313 154.853 664.083 156.946C666.853 159.039 670.392 160.085 674.701 160.085ZM823.144 0.909085V190H772.178V0.909085H823.144ZM894.907 156.392L895.276 95.8239H901.924L936.271 48.1818H993.515L935.901 122.415H921.498L894.907 156.392ZM849.112 190V0.909085H900.078V190H849.112ZM936.64 190L904.14 133.864L937.379 97.6704L994.992 190H936.64Z" fill="#101111" fill-opacity="0.78"/>
</svg>
