<svg width="1659" height="805" viewBox="0 0 1659 805" fill="none" xmlns="http://www.w3.org/2000/svg">
<rect width="1659" height="505" rx="125" fill="#1669FF"/>
<path d="M277.379 644.029C269.684 657.364 250.439 657.368 242.738 644.037L162.163 504.557C154.462 491.225 164.08 474.556 179.476 474.553L340.557 474.513C355.953 474.509 365.58 491.173 357.885 504.509L277.379 644.029Z" fill="#1669FF"/>
<path d="M1411.38 644.029C1403.68 657.364 1384.44 657.368 1376.74 644.037L1296.16 504.557C1288.46 491.225 1298.08 474.556 1313.48 474.553L1474.56 474.513C1489.95 474.509 1499.58 491.173 1491.88 504.509L1411.38 644.029Z" fill="#1669FF"/>
<g filter="url(#filter0_d_154_83)">
<circle cx="463" cy="252" r="62" fill="white"/>
</g>
<g filter="url(#filter1_d_154_83)">
<circle cx="1134" cy="252" r="62" fill="white"/>
</g>
<g filter="url(#filter2_d_154_83)">
<circle cx="830" cy="252" r="62" fill="white"/>
</g>
<path d="M339.326 742V552.909H390.661V700.636H467.11V742H339.326ZM528.117 744.216C519.069 744.216 511.067 742.739 504.111 739.784C497.217 736.768 491.801 732.213 487.861 726.119C483.922 720.026 481.952 712.27 481.952 702.852C481.952 695.097 483.276 688.48 485.922 683.001C488.569 677.462 492.262 672.938 497.002 669.429C501.742 665.92 507.251 663.243 513.529 661.396C519.869 659.55 526.701 658.349 534.026 657.795C541.966 657.18 548.337 656.441 553.138 655.58C558.001 654.656 561.51 653.394 563.664 651.794C565.818 650.132 566.895 647.947 566.895 645.239V644.869C566.895 641.176 565.48 638.345 562.648 636.375C559.817 634.405 556.185 633.42 551.753 633.42C546.891 633.42 542.921 634.498 539.843 636.652C536.827 638.745 535.011 641.976 534.395 646.347H487.492C488.108 637.729 490.847 629.789 495.709 622.526C500.634 615.201 507.805 609.353 517.222 604.983C526.64 600.551 538.396 598.335 552.492 598.335C562.648 598.335 571.758 599.536 579.822 601.936C587.885 604.275 594.748 607.568 600.411 611.815C606.074 616.001 610.383 620.925 613.337 626.588C616.353 632.189 617.861 638.283 617.861 644.869V742H570.219V722.057H569.111C566.28 727.35 562.833 731.628 558.77 734.891C554.769 738.153 550.184 740.523 545.013 742C539.904 743.477 534.272 744.216 528.117 744.216ZM544.736 712.085C548.614 712.085 552.246 711.285 555.631 709.685C559.078 708.084 561.879 705.776 564.033 702.76C566.188 699.744 567.265 696.081 567.265 691.773V679.955C565.911 680.509 564.464 681.032 562.925 681.524C561.448 682.017 559.848 682.478 558.124 682.909C556.462 683.34 554.677 683.74 552.769 684.109C550.922 684.479 548.983 684.817 546.952 685.125C543.013 685.741 539.781 686.756 537.258 688.172C534.796 689.526 532.949 691.219 531.718 693.25C530.548 695.22 529.964 697.436 529.964 699.898C529.964 703.837 531.349 706.853 534.118 708.946C536.888 711.039 540.428 712.085 544.736 712.085ZM693.179 662.227V742H642.213V600.182H690.594V627.142H692.071C695.149 618.155 700.566 611.107 708.321 605.999C716.138 600.89 725.248 598.335 735.651 598.335C745.684 598.335 754.394 600.643 761.78 605.26C769.228 609.815 774.983 616.093 779.046 624.095C783.17 632.097 785.201 641.238 785.139 651.517V742H734.173V662.227C734.235 655.21 732.45 649.701 728.818 645.7C725.248 641.699 720.262 639.699 713.861 639.699C709.675 639.699 706.013 640.622 702.874 642.469C699.796 644.254 697.426 646.839 695.764 650.224C694.102 653.548 693.241 657.549 693.179 662.227Z" fill="#1669FF"/>
<path d="M792.456 594.273V552.909H956.803V594.273H899.928V742H849.331V594.273H792.456ZM997.082 744.216C988.034 744.216 980.032 742.739 973.076 739.784C966.182 736.768 960.766 732.213 956.826 726.119C952.887 720.026 950.917 712.27 950.917 702.852C950.917 695.097 952.24 688.48 954.887 683.001C957.534 677.462 961.227 672.938 965.967 669.429C970.706 665.92 976.215 663.243 982.494 661.396C988.834 659.55 995.666 658.349 1002.99 657.795C1010.93 657.18 1017.3 656.441 1022.1 655.58C1026.97 654.656 1030.47 653.394 1032.63 651.794C1034.78 650.132 1035.86 647.947 1035.86 645.239V644.869C1035.86 641.176 1034.44 638.345 1031.61 636.375C1028.78 634.405 1025.15 633.42 1020.72 633.42C1015.86 633.42 1011.89 634.498 1008.81 636.652C1005.79 638.745 1003.98 641.976 1003.36 646.347H956.457C957.072 637.729 959.811 629.789 964.674 622.526C969.598 615.201 976.769 609.353 986.187 604.983C995.605 600.551 1007.36 598.335 1021.46 598.335C1031.61 598.335 1040.72 599.536 1048.79 601.936C1056.85 604.275 1063.71 607.568 1069.38 611.815C1075.04 616.001 1079.35 620.925 1082.3 626.588C1085.32 632.189 1086.83 638.283 1086.83 644.869V742H1039.18V722.057H1038.08C1035.24 727.35 1031.8 731.628 1027.74 734.891C1023.73 738.153 1019.15 740.523 1013.98 742C1008.87 743.477 1003.24 744.216 997.082 744.216ZM1013.7 712.085C1017.58 712.085 1021.21 711.285 1024.6 709.685C1028.04 708.084 1030.84 705.776 1033 702.76C1035.15 699.744 1036.23 696.081 1036.23 691.773V679.955C1034.88 680.509 1033.43 681.032 1031.89 681.524C1030.41 682.017 1028.81 682.478 1027.09 682.909C1025.43 683.34 1023.64 683.74 1021.73 684.109C1019.89 684.479 1017.95 684.817 1015.92 685.125C1011.98 685.741 1008.75 686.756 1006.22 688.172C1003.76 689.526 1001.91 691.219 1000.68 693.25C999.513 695.22 998.928 697.436 998.928 699.898C998.928 703.837 1000.31 706.853 1003.08 708.946C1005.85 711.039 1009.39 712.085 1013.7 712.085ZM1162.14 552.909V742H1111.18V552.909H1162.14ZM1233.91 708.392L1234.28 647.824H1240.92L1275.27 600.182H1332.52L1274.9 674.415H1260.5L1233.91 708.392ZM1188.11 742V552.909H1239.08V742H1188.11ZM1275.64 742L1243.14 685.864L1276.38 649.67L1333.99 742H1275.64Z" fill="#101111" fill-opacity="0.78"/>
<defs>
<filter id="filter0_d_154_83" x="401" y="190" width="144" height="144" filterUnits="userSpaceOnUse" color-interpolation-filters="sRGB">
<feFlood flood-opacity="0" result="BackgroundImageFix"/>
<feColorMatrix in="SourceAlpha" type="matrix" values="0 0 0 0 0 0 0 0 0 0 0 0 0 0 0 0 0 0 127 0" result="hardAlpha"/>
<feOffset dx="10" dy="10"/>
<feGaussianBlur stdDeviation="5"/>
<feComposite in2="hardAlpha" operator="out"/>
<feColorMatrix type="matrix" values="0 0 0 0 0 0 0 0 0 0 0 0 0 0 0 0 0 0 0.25 0"/>
<feBlend mode="normal" in2="BackgroundImageFix" result="effect1_dropShadow_154_83"/>
<feBlend mode="normal" in="SourceGraphic" in2="effect1_dropShadow_154_83" result="shape"/>
</filter>
<filter id="filter1_d_154_83" x="1072" y="190" width="144" height="144" filterUnits="userSpaceOnUse" color-interpolation-filters="sRGB">
<feFlood flood-opacity="0" result="BackgroundImageFix"/>
<feColorMatrix in="SourceAlpha" type="matrix" values="0 0 0 0 0 0 0 0 0 0 0 0 0 0 0 0 0 0 127 0" result="hardAlpha"/>
<feOffset dx="10" dy="10"/>
<feGaussianBlur stdDeviation="5"/>
<feComposite in2="hardAlpha" operator="out"/>
<feColorMatrix type="matrix" values="0 0 0 0 0 0 0 0 0 0 0 0 0 0 0 0 0 0 0.25 0"/>
<feBlend mode="normal" in2="BackgroundImageFix" result="effect1_dropShadow_154_83"/>
<feBlend mode="normal" in="SourceGraphic" in2="effect1_dropShadow_154_83" result="shape"/>
</filter>
<filter id="filter2_d_154_83" x="768" y="190" width="144" height="144" filterUnits="userSpaceOnUse" color-interpolation-filters="sRGB">
<feFlood flood-opacity="0" result="BackgroundImageFix"/>
<feColorMatrix in="SourceAlpha" type="matrix" values="0 0 0 0 0 0 0 0 0 0 0 0 0 0 0 0 0 0 127 0" result="hardAlpha"/>
<feOffset dx="10" dy="10"/>
<feGaussianBlur stdDeviation="5"/>
<feComposite in2="hardAlpha" operator="out"/>
<feColorMatrix type="matrix" values="0 0 0 0 0 0 0 0 0 0 0 0 0 0 0 0 0 0 0.25 0"/>
<feBlend mode="normal" in2="BackgroundImageFix" result="effect1_dropShadow_154_83"/>
<feBlend mode="normal" in="SourceGraphic" in2="effect1_dropShadow_154_83" result="shape"/>
</filter>
</defs>
</svg>
